<svg width="40" height="40" viewBox="0 0 40 40" fill="none" xmlns="http://www.w3.org/2000/svg">
<path d="M39.0936 5.42836C34.2528 5.42836 27.4139 5.8334 23.919 9.32643C22.4058 10.8396 21.6503 13.3062 21.8464 16.0982C21.8719 16.467 22.1171 16.7811 22.4694 16.8975C22.82 17.0119 23.2051 16.9047 23.4449 16.6232C25.3885 14.3363 27.8044 12.5035 30.6308 11.1756C30.8706 11.0612 31.1539 11.0521 31.4118 11.1429C31.6389 11.2247 31.8169 11.379 31.9095 11.5771C32.102 11.984 32.0403 12.5198 31.4009 12.8213C31.3646 12.8395 31.3319 12.8631 31.2956 12.8795C31.2829 12.8849 31.2684 12.8832 31.2575 12.8886C24.2932 16.1619 20.8692 21.8728 19.3143 27.7453C18.1808 20.3924 15.7868 16.0637 13.5253 13.4063C11.8887 11.2847 10.2793 10.1603 9.34929 9.52457C9.1767 9.40647 8.65544 9.05047 8.43925 8.83429C8.08504 8.48008 8.08504 7.90424 8.43925 7.55003C8.79346 7.19761 9.37109 7.19761 9.76523 7.58996C9.86153 7.67536 10.0159 7.78435 10.2121 7.91514L10.3738 8.02412C11.6889 8.92505 14.1375 10.598 16.3099 14.2C16.5043 14.5215 16.8803 14.6941 17.2454 14.6251C17.616 14.5597 17.9066 14.2745 17.9793 13.9058C18.4534 11.4845 18.2408 7.89147 16.0811 5.73173C12.5863 2.24049 5.74736 1.83545 0.908338 1.83545C0.406913 1.83536 0 2.24228 0 2.74362C0 7.58443 0.40504 14.4234 3.89807 17.9183C5.35484 19.375 7.60184 20.029 9.8342 20.029C11.6561 20.029 13.4417 19.573 14.8095 18.7828C16.6749 22.6482 18.1645 28.4227 18.1645 37.2561C18.1645 37.7575 18.5714 38.1644 19.0727 38.1644C19.5741 38.1644 19.981 37.7575 19.981 37.2561C19.981 32.3281 20.8256 26.4137 23.9662 21.5457C25.225 22.7754 27.3921 23.5547 29.7934 23.6273C29.9133 23.631 30.0314 23.6328 30.1494 23.6328C32.5889 23.6328 34.745 22.8681 36.1018 21.5093C39.5967 18.0145 39.9999 11.1756 39.9999 6.33465C40.0019 5.8334 39.5967 5.42836 39.0936 5.42836Z" fill="#00B307"/>
</svg>
