<svg width="110" height="105" viewBox="0 0 110 105" fill="none" xmlns="http://www.w3.org/2000/svg">
<path d="M73.8523 38.2143C66.1434 38.2143 58.2963 37.8852 50.9559 35.7368C43.7535 33.6367 37.1406 29.5624 31.2461 24.8493C27.3871 21.7815 23.878 19.333 18.8677 19.7007C13.9661 19.9795 9.2788 21.9027 5.49454 25.188C-0.87889 31.0527 0.0789656 41.9209 2.63018 49.5276C6.4616 61.0151 18.1217 69.0186 28.0318 74.1962C39.48 80.206 52.0611 83.6997 64.6698 85.703C75.722 87.474 89.924 88.7515 99.5026 81.1738C108.298 74.1962 110.711 58.2859 108.556 47.5436C108.033 44.3702 106.425 41.5067 104.034 39.4917C97.854 34.74 88.6346 37.9143 81.6901 38.0691C79.1113 38.1272 76.4864 38.1949 73.8523 38.2143Z" fill="#EDF2EE"/>
<path d="M55.3586 104.536C74.0316 104.536 89.169 103.544 89.169 102.32C89.169 101.096 74.0316 100.103 55.3586 100.103C36.6856 100.103 21.5481 101.096 21.5481 102.32C21.5481 103.544 36.6856 104.536 55.3586 104.536Z" fill="#EDF2EE"/>
<path d="M77.2508 82.0158C79.6466 82.0158 81.5888 79.975 81.5888 77.4576C81.5888 74.9401 79.6466 72.8994 77.2508 72.8994C74.855 72.8994 72.9128 74.9401 72.9128 77.4576C72.9128 79.975 74.855 82.0158 77.2508 82.0158Z" fill="white" stroke="#00B207" stroke-linecap="round" stroke-linejoin="round"/>
<path d="M7.6499 16.8748L19.6231 15.8103C21.1161 15.6729 22.6088 16.0786 23.8512 16.9595C25.0935 17.8404 26.0102 19.1429 26.4478 20.6492L37.9237 61.0054L35.6764 65.2346C35.0992 66.3242 34.8142 67.5581 34.8519 68.8046C34.8896 70.0511 35.2486 71.2634 35.8905 72.3124C36.5324 73.3614 37.4331 74.2076 38.4968 74.7609C39.5604 75.3143 40.747 75.5539 41.9301 75.4543L87.8888 71.3509" stroke="#00B207" stroke-linecap="round" stroke-linejoin="round"/>
<path d="M28.1609 26.7752L81.5798 22.0137C82.106 21.9663 82.6356 22.0441 83.1294 22.2411C83.6231 22.4382 84.0683 22.7495 84.4319 23.152C84.7955 23.5545 85.0682 24.0379 85.2298 24.5663C85.3913 25.0946 85.4376 25.6544 85.3652 26.2042L81.7456 53.6599C81.6357 54.4837 81.2652 55.2447 80.6939 55.8204C80.1226 56.3962 79.3835 56.7533 78.5957 56.8343L37.9237 61.0054L28.1609 26.7752Z" fill="#EDF2EE" stroke="#00B207" stroke-linecap="round" stroke-linejoin="round"/>
<path d="M47.0416 84.7062C49.4374 84.7062 51.3796 82.6654 51.3796 80.148C51.3796 77.6305 49.4374 75.5898 47.0416 75.5898C44.6458 75.5898 42.7036 77.6305 42.7036 80.148C42.7036 82.6654 44.6458 84.7062 47.0416 84.7062Z" fill="white" stroke="#00B207" stroke-linecap="round" stroke-linejoin="round"/>
<path d="M5.88346 16.2254L17.1714 15.219C17.8519 15.1583 18.492 15.6924 18.5546 16.4682C18.6173 17.244 18.072 17.8838 17.3915 17.9444L6.10355 18.9509C5.42302 19.0115 4.78298 18.4775 4.72033 17.7016C4.65768 16.9258 5.20294 16.2861 5.88346 16.2254Z" fill="#D2D2D2" stroke="#00B207"/>
<path d="M50.6519 47.9791C50.8721 46.2129 51.6604 44.5788 52.8859 43.348C54.1115 42.1172 55.7006 41.3636 57.3898 41.2122C59.0789 41.0608 60.7666 41.5208 62.1728 42.5157C63.579 43.5106 64.6192 44.9808 65.121 46.6823" stroke="#B4CCB4" stroke-linecap="round" stroke-linejoin="round"/>
<path d="M65.7723 36.4529C65.7723 36.799 65.5113 37.0368 65.2408 37.0368C64.9703 37.0368 64.7092 36.799 64.7092 36.4529C64.7092 36.1068 64.9702 35.869 65.2408 35.869C65.5113 35.869 65.7723 36.1068 65.7723 36.4529Z" fill="#BABABA" stroke="#B4CCB4"/>
<path d="M49.4244 37.9046C49.4244 38.2507 49.1634 38.4885 48.8929 38.4885C48.6223 38.4885 48.3613 38.2507 48.3613 37.9046C48.3613 37.5585 48.6223 37.3207 48.8929 37.3207C49.1634 37.3207 49.4244 37.5585 49.4244 37.9046Z" fill="#BABABA" stroke="#B4CCB4"/>
<path d="M19.8347 78.8027V82.9738" stroke="#B4CCB4" stroke-linecap="round" stroke-linejoin="round"/>
<path d="M17.8547 80.8835H21.8151" stroke="#B4CCB4" stroke-linecap="round" stroke-linejoin="round"/>
<path d="M83.1177 1.26462V5.42605" stroke="#B4CCB4" stroke-linecap="round" stroke-linejoin="round"/>
<path d="M81.1377 3.34537H85.0981" stroke="#B4CCB4" stroke-linecap="round" stroke-linejoin="round"/>
<path d="M36.229 13.7005V17.862" stroke="#B4CCB4" stroke-linecap="round" stroke-linejoin="round"/>
<path d="M34.2395 15.7812H38.2091" stroke="#B4CCB4" stroke-linecap="round" stroke-linejoin="round"/>
<path d="M93.0002 29.0011C93.5191 29.0011 93.9397 28.5591 93.9397 28.0139C93.9397 27.4687 93.5191 27.0268 93.0002 27.0268C92.4814 27.0268 92.0608 27.4687 92.0608 28.0139C92.0608 28.5591 92.4814 29.0011 93.0002 29.0011Z" fill="white" stroke="#B4CCB4" stroke-linecap="round" stroke-linejoin="round"/>
<path d="M58.294 19.1781C58.294 19.4494 58.0907 19.6265 57.8914 19.6265C57.6921 19.6265 57.4888 19.4494 57.4888 19.1781C57.4888 18.9069 57.6921 18.7297 57.8914 18.7297C58.0907 18.7297 58.294 18.9068 58.294 19.1781Z" fill="#CFCFCF" stroke="#B4CCB4"/>
<path d="M64.354 88.0063C64.354 88.2776 64.1507 88.4547 63.9514 88.4547C63.7521 88.4547 63.5488 88.2776 63.5488 88.0063C63.5488 87.735 63.7521 87.5579 63.9514 87.5579C64.1507 87.5579 64.354 87.735 64.354 88.0063Z" fill="#CFCFCF" stroke="#B4CCB4"/>
</svg>
